<?xml version="1.0" encoding="utf-8"?>
<!-- Generator: Adobe Illustrator 25.0.1, SVG Export Plug-In . SVG Version: 6.00 Build 0)  -->
<svg version="1.1" id="Layer_1" xmlns="http://www.w3.org/2000/svg" xmlns:xlink="http://www.w3.org/1999/xlink" x="0px"
	y="0px" viewBox="0 0 430 430" style="enable-background:new 0 0 430 430;" xml:space="preserve">
	<style type="text/css">
		.st0 {
			fill: #121331;
		}

		.st1 {
			fill: #e8e230;
		}
	</style>
	<path class="st0"
		d="M157.5,374.1c-19.1,0-38.1-5-54.3-14.7c-30.4-18.1-50.6-52.6-51.6-87.9c-0.8-27.1,9.6-54.7,28.5-75.8
	c8.9-10,20.1-16.2,30.8-22.3c12.2-6.9,23.7-13.3,31.2-24.5c5-7.4,7.8-16.1,10.8-25.3c2-6.2,4.1-12.6,6.9-18.7
	c8.2-17.8,22.5-32.3,40.1-40.8c18.3-8.9,38.5-10.4,57.1-4.4c25.7,8.3,46.1,30.8,52.1,57.4c1.7,7.6,2.2,15.2,2.7,22.6
	c0.4,5.2,0.7,10.1,1.4,15c2.7,18.5,14.4,28.5,27.9,40.2c7.2,6.2,14.7,12.6,21.1,20.8c13.2,16.7,18.7,40.1,14.8,62.6l0,0
	c-3.5,20.2-14,37.1-29.6,47.6c-19.4,13-42.1,14.3-64.1,15.6c-6.4,0.4-12.3,0.7-18.3,1.3c-16.6,1.7-30.8,8.1-45.8,14.8
	c-11.9,5.3-24.1,10.8-37.7,13.9C173.8,373.2,165.6,374.1,157.5,374.1z M234.6,68c-26.1,0-51.9,16.1-63.8,41.8
	c-2.5,5.5-4.4,11.3-6.4,17.4c-3.1,9.6-6.3,19.5-12.3,28.3c-9.2,13.5-22.4,21-35.3,28.3c-10.4,5.9-20.2,11.4-27.8,19.9
	c-16.9,18.9-26.1,43.5-25.4,67.5c0.9,31.3,18.9,61.9,45.8,77.9c20.5,12.2,45.9,16,69.7,10.6c12.5-2.9,23.6-7.9,35.5-13.2
	c15.3-6.8,31-13.9,49.5-15.8c6.2-0.6,12.6-1,18.8-1.4c20.3-1.2,41.4-2.4,58.1-13.6c12.8-8.6,21.5-22.7,24.4-39.7
	c3.4-19.2-1.3-39.1-12.4-53.1c-5.7-7.2-12.8-13.3-19.6-19.1c-14.1-12.1-28.6-24.6-32-47.5c-0.8-5.3-1.2-10.7-1.5-15.9
	c-0.5-7.3-1-14.1-2.5-20.8c-5.1-22.5-22.4-41.6-44.1-48.6C247.3,68.9,240.9,68,234.6,68z M371.3,277.1L371.3,277.1L371.3,277.1z" />
	<path class="st1" d="M175.6,324.6c-4.4,0-8.9-0.4-13.4-1.4c-35.9-7.4-59.1-42.6-51.7-78.5l0,0c7.4-35.9,42.6-59.1,78.5-51.7
	c17.4,3.6,32.4,13.7,42.1,28.6c9.8,14.8,13.2,32.6,9.6,50C234.3,302.9,206.5,324.6,175.6,324.6z M122.2,247.1
	c-6.1,29.4,13,58.3,42.4,64.4c3.7,0.8,7.4,1.1,11,1.1c25.3,0,48.1-17.8,53.4-43.5c2.9-14.3,0.1-28.8-7.9-41
	c-8-12.2-20.3-20.5-34.5-23.4C157.2,198.6,128.3,217.7,122.2,247.1L122.2,247.1z" />
	<path class="st1"
		d="M205.7,267.6c-0.4,0-0.9,0-1.4-0.2c-3.2-0.7-5.2-4-4.5-7.2c0.5-2.1,0.8-5.3-0.2-9c-0.6-2.2-1.7-4.2-3.1-6
	c-2.1-2.6-1.6-6.4,1-8.4c2.6-2.1,6.4-1.6,8.4,1c2.4,3,4.2,6.4,5.2,10c1.4,4.8,1.6,10,0.4,15C210.9,265.7,208.5,267.6,205.7,267.6z" />
</svg>